<?xml version="1.0" encoding="UTF-8"?>
<!-- Generator: Adobe Illustrator 16.0.0, SVG Export Plug-In . SVG Version: 6.00 Build 0)  -->
<!DOCTYPE svg PUBLIC "-//W3C//DTD SVG 1.1//EN" "http://www.w3.org/Graphics/SVG/1.1/DTD/svg11.dtd">
<svg version="1.1" id="Layer_1" xmlns="http://www.w3.org/2000/svg" xmlns:xlink="http://www.w3.org/1999/xlink" x="0px" y="0px" width="700.07px" height="500.188px" viewBox="0 0 200.07 59.188" enable-background="new 0 0 200.07 59.188" xml:space="preserve">
<g>
	<linearGradient id="SVGID_1_" gradientUnits="userSpaceOnUse" x1="6.8384" y1="62.7842" x2="8.3074" y2="43.393">
		<stop offset="0" style="stop-color:#8FFF3F"/>
		<stop offset="0.0916" style="stop-color:#6CF734"/>
		<stop offset="0.2067" style="stop-color:#46EE28"/>
		<stop offset="0.2993" style="stop-color:#2FE821"/>
		<stop offset="0.3571" style="stop-color:#26E61E"/>
		<stop offset="0.6168" style="stop-color:#28C30F"/>
		<stop offset="0.857" style="stop-color:#2AA904"/>
		<stop offset="1" style="stop-color:#2B9F00"/>
	</linearGradient>
	<polygon fill="url(#SVGID_1_)" points="0,59.188 0,41.675 16.245,33.808 16.245,49.997  "/>
	<linearGradient id="SVGID_2_" gradientUnits="userSpaceOnUse" x1="-19.9292" y1="44.2324" x2="10.0412" y2="28.5617">
		<stop offset="0" style="stop-color:#8FFF3F"/>
		<stop offset="0.0916" style="stop-color:#6CF734"/>
		<stop offset="0.2067" style="stop-color:#46EE28"/>
		<stop offset="0.2993" style="stop-color:#2FE821"/>
		<stop offset="0.3571" style="stop-color:#26E61E"/>
		<stop offset="0.6168" style="stop-color:#28C30F"/>
		<stop offset="0.857" style="stop-color:#2AA904"/>
		<stop offset="1" style="stop-color:#2B9F00"/>
	</linearGradient>
	<polygon fill="url(#SVGID_2_)" points="16.248,33.753 0,41.62 0,25.375 16.248,17.511  "/>
	<linearGradient id="SVGID_3_" gradientUnits="userSpaceOnUse" x1="32.334" y1="9.4932" x2="24.5662" y2="21.397">
		<stop offset="0" style="stop-color:#8FFF3F"/>
		<stop offset="0.0916" style="stop-color:#6CF734"/>
		<stop offset="0.2067" style="stop-color:#46EE28"/>
		<stop offset="0.2993" style="stop-color:#2FE821"/>
		<stop offset="0.3571" style="stop-color:#26E61E"/>
		<stop offset="0.6168" style="stop-color:#28C30F"/>
		<stop offset="0.857" style="stop-color:#2AA904"/>
		<stop offset="1" style="stop-color:#2B9F00"/>
	</linearGradient>
	<polygon opacity="0.82" fill="url(#SVGID_3_)" points="32.488,25.892 16.245,33.753 16.245,17.514 32.488,9.645  "/>
	<linearGradient id="SVGID_4_" gradientUnits="userSpaceOnUse" x1="18.6787" y1="42.4727" x2="-11.9926" y2="28.5747">
		<stop offset="0" style="stop-color:#CAFF3F"/>
		<stop offset="0.1393" style="stop-color:#ABF32F"/>
		<stop offset="0.2734" style="stop-color:#94E922"/>
		<stop offset="0.3571" style="stop-color:#8BE61E"/>
		<stop offset="0.3654" style="stop-color:#89E51E"/>
		<stop offset="0.583" style="stop-color:#4ED518"/>
		<stop offset="0.7688" style="stop-color:#24C914"/>
		<stop offset="0.9138" style="stop-color:#0AC211"/>
		<stop offset="1" style="stop-color:#00BF10"/>
	</linearGradient>
	<polygon opacity="0.6" fill="url(#SVGID_4_)" points="0,41.624 16.248,49.997 16.248,33.753 0,25.381  "/>
	
		<linearGradient id="SVGID_5_" gradientUnits="userSpaceOnUse" x1="145.7793" y1="33.6855" x2="137.8973" y2="45.7644" gradientTransform="matrix(-1 0 0 1 162.0645 0)">
		<stop offset="0" style="stop-color:#8FFF3F"/>
		<stop offset="0.0091" style="stop-color:#8FFE3E"/>
		<stop offset="0.2231" style="stop-color:#8AEC27"/>
		<stop offset="0.3571" style="stop-color:#88E61E"/>
		<stop offset="0.7264" style="stop-color:#9CE10A"/>
		<stop offset="1" style="stop-color:#A5DF00"/>
	</linearGradient>
	<polygon opacity="0.82" fill="url(#SVGID_5_)" points="16.248,50.008 32.491,58.381 32.491,42.139 16.248,33.762  "/>
	<linearGradient id="SVGID_6_" gradientUnits="userSpaceOnUse" x1="22.5547" y1="5.332" x2="-1.8856" y2="17.7918">
		<stop offset="0" style="stop-color:#8FFF3F"/>
		<stop offset="0.0916" style="stop-color:#6CF734"/>
		<stop offset="0.2067" style="stop-color:#46EE28"/>
		<stop offset="0.2993" style="stop-color:#2FE821"/>
		<stop offset="0.3571" style="stop-color:#26E61E"/>
		<stop offset="0.6168" style="stop-color:#28C30F"/>
		<stop offset="0.857" style="stop-color:#2AA904"/>
		<stop offset="1" style="stop-color:#2B9F00"/>
	</linearGradient>
	<polygon fill="url(#SVGID_6_)" points="0,25.381 0,7.866 16.245,0 16.245,17.514  "/>
</g>
<g>
	<g>
		<path fill="#353535" d="M69.347,52.062c-0.061-1.183-0.139-2.64-0.139-3.693h-0.026c-0.306,0.988-0.647,2.084-1.08,3.247    l-1.507,4.149h-0.836l-1.398-4.073c-0.407-1.205-0.74-2.313-0.979-3.323h-0.022c-0.027,1.066-0.086,2.5-0.169,3.782l-0.225,3.667    h-1.054l0.597-8.554h1.407l1.462,4.136c0.353,1.059,0.633,2.005,0.86,2.896h0.026c0.229-0.868,0.532-1.815,0.913-2.896    l1.523-4.136h1.407l0.535,8.554H69.55L69.347,52.062z"/>
		<path fill="#353535" d="M76.139,53.122l-0.888,2.695h-1.143l2.905-8.554h1.333l2.92,8.554h-1.182l-0.913-2.695H76.139z     M78.941,52.264l-0.847-2.461c-0.18-0.56-0.307-1.066-0.435-1.561h-0.035c-0.116,0.494-0.257,1.025-0.418,1.55l-0.843,2.472    H78.941z"/>
		<path fill="#353535" d="M89.565,55.817l-1.103-1.891c-0.443-0.725-0.71-1.194-0.981-1.688h-0.02    c-0.239,0.493-0.494,0.948-0.929,1.697l-1.027,1.881h-1.269l2.614-4.327l-2.514-4.227h1.285l1.127,2.004    c0.316,0.56,0.56,0.99,0.79,1.446h0.039c0.242-0.506,0.453-0.897,0.77-1.446l1.157-2.004h1.281l-2.602,4.161l2.668,4.393H89.565z"/>
		<path fill="#353535" d="M95.777,47.264v8.554h-1.116v-8.554H95.777z"/>
		<path fill="#353535" d="M107.449,52.062c-0.064-1.183-0.139-2.64-0.139-3.693h-0.024c-0.307,0.988-0.65,2.084-1.08,3.247    l-1.513,4.149h-0.837l-1.394-4.073c-0.407-1.205-0.736-2.313-0.977-3.323h-0.025c-0.027,1.066-0.088,2.5-0.166,3.782l-0.229,3.667    h-1.052l0.596-8.554h1.407l1.461,4.136c0.354,1.059,0.634,2.005,0.864,2.896h0.024c0.227-0.868,0.531-1.815,0.914-2.896    l1.522-4.136h1.407l0.533,8.554h-1.089L107.449,52.062z"/>
		<path fill="#353535" d="M114.241,53.122l-0.891,2.695h-1.141l2.907-8.554h1.337l2.913,8.554h-1.181l-0.912-2.695H114.241z     M117.044,52.264l-0.85-2.461c-0.176-0.56-0.303-1.066-0.431-1.561h-0.04c-0.112,0.494-0.25,1.025-0.417,1.55l-0.837,2.472    H117.044z"/>
		<path fill="#353535" d="M129.499,47.264v8.554h-1.117v-8.554H129.499z"/>
		<path fill="#353535" d="M133.97,55.817v-8.554h1.213l2.73,4.327c0.621,1,1.13,1.905,1.521,2.78l0.04-0.017    c-0.104-1.139-0.129-2.18-0.129-3.5v-3.591h1.041v8.554h-1.117l-2.711-4.338c-0.599-0.953-1.171-1.932-1.59-2.858l-0.037,0.015    c0.063,1.078,0.074,2.105,0.074,3.523v3.658H133.97z"/>
		<path fill="#353535" d="M146.481,48.205h-2.602v-0.941h6.329v0.941h-2.614v7.612h-1.113V48.205z"/>
		<path fill="#353535" d="M158.114,51.809h-3.306v3.081h3.702v0.928h-4.821v-8.554h4.631v0.928h-3.512v2.7h3.306V51.809z"/>
		<path fill="#353535" d="M169.006,55.435c-0.49,0.189-1.48,0.468-2.637,0.468c-1.296,0-2.362-0.326-3.199-1.13    c-0.733-0.704-1.19-1.849-1.19-3.182c0-2.552,1.763-4.416,4.631-4.416c0.989,0,1.771,0.218,2.141,0.396l-0.274,0.899    c-0.457-0.216-1.029-0.368-1.892-0.368c-2.084,0-3.438,1.293-3.438,3.437c0,2.171,1.295,3.449,3.297,3.449    c0.725,0,1.221-0.099,1.474-0.225v-2.552h-1.727v-0.891h2.815V55.435z"/>
		<path fill="#353535" d="M173.222,47.393c0.563-0.117,1.372-0.193,2.119-0.193c1.18,0,1.957,0.23,2.486,0.712    c0.422,0.368,0.673,0.953,0.673,1.622c0,1.119-0.723,1.866-1.607,2.171v0.039c0.645,0.227,1.037,0.838,1.252,1.725    c0.279,1.193,0.483,2.019,0.653,2.35h-1.146c-0.141-0.257-0.331-0.981-0.559-2.043c-0.256-1.184-0.726-1.624-1.725-1.661h-1.042    v3.704h-1.105V47.393z M174.327,51.273h1.128c1.181,0,1.93-0.646,1.93-1.625c0-1.098-0.797-1.583-1.968-1.583    c-0.532,0-0.899,0.048-1.09,0.101V51.273z"/>
		<path fill="#353535" d="M184.035,53.122l-0.887,2.695h-1.141l2.904-8.554h1.333l2.92,8.554h-1.18l-0.915-2.695H184.035z     M186.84,52.264l-0.852-2.461c-0.176-0.56-0.301-1.066-0.429-1.561h-0.039c-0.113,0.494-0.255,1.025-0.421,1.55l-0.832,2.472    H186.84z"/>
	</g>
</g>
<path fill="#353535" d="M53.48,14.31h2.735v11.938L66.251,14.31h3.003L58.915,26.611l11.371,12.374h-3.434L56.215,27.281v11.705  H53.48V14.31z"/>
<path fill="#353535" d="M96.441,38.985V14.31h3.868l9.137,20.708l9.103-20.708h3.869v24.676h-2.601l0.063-21.941l-9.568,21.941  h-1.768l-9.604-21.941l0.068,21.941H96.441z"/>
<path fill="#353535" d="M126.195,26.714c0-7.602,5.901-12.839,12.87-12.839c7.237,0,12.871,5.535,12.871,12.771  c0,7.235-5.603,12.77-12.871,12.77c-7.302,0-12.87-5.632-12.87-12.668V26.714z M128.963,26.646c0,5.806,4.368,10.339,10.135,10.339  c5.834,0,10.107-4.701,10.107-10.339c0-5.634-4.273-10.337-10.14-10.337c-5.802,0-10.103,4.602-10.103,10.303V26.646z"/>
<path fill="#353535" d="M155.514,14.31h6.435c3.869,0,5.668,0.467,6.938,1.266c2.002,1.2,3.369,3.834,3.369,6.635  c0.032,1.671-0.436,3.436-1.47,4.835c-1.468,2.002-3.234,2.468-5.503,2.703l6.137,9.236h-2.999l-6.972-10.771h0.799  c1.735,0,4.135-0.034,5.47-1.266c1.305-1.269,1.87-2.77,1.87-4.536c0-1.835-0.903-3.768-2.435-4.768  c-1.234-0.802-2.77-0.902-5.004-0.902h-3.869v22.242h-2.766V14.31z"/>
<path fill="#353535" d="M174.327,26.714c0-7.602,5.903-12.839,12.872-12.839c7.235,0,12.871,5.535,12.871,12.771  c0,7.235-5.604,12.77-12.871,12.77c-7.304,0-12.872-5.632-12.872-12.668V26.714z M177.094,26.646c0,5.806,4.37,10.339,10.138,10.339  c5.836,0,10.104-4.701,10.104-10.339c0-5.634-4.269-10.337-10.137-10.337c-5.804,0-10.105,4.602-10.105,10.303V26.646z"/>
<polygon fill="#353535" points="83.496,14.31 80.829,14.31 70.524,38.985 73.493,38.985 76.114,32.57 77.18,29.783 77.161,29.783   82.061,17.411 86.538,28.624 86.538,28.624 86.539,28.638 86.997,29.783 86.979,29.783 88.024,32.517 90.699,38.985 93.702,38.985   "/>
</svg>